<?xml version="1.0" encoding="UTF-8" standalone="no"?><!DOCTYPE svg PUBLIC "-//W3C//DTD SVG 1.1//EN" "http://www.w3.org/Graphics/SVG/1.1/DTD/svg11.dtd"><svg width="100%" height="100%" viewBox="0 0 75 75" version="1.1" xmlns="http://www.w3.org/2000/svg" xmlns:xlink="http://www.w3.org/1999/xlink" xml:space="preserve" xmlns:serif="http://www.serif.com/" style="fill-rule:evenodd;clip-rule:evenodd;stroke-linejoin:round;stroke-miterlimit:2;"><path id="lofo-fac" d="M35.845,73.643l-0,-27.852l-10.53,-0l-0,-13.936l10.53,0l-0,-10.666c-0,-6.334 3.317,-10.594 10.351,-10.594l13.772,0.224l-0,14.001l-7.104,0c-2.501,-0.4 -3.236,1.071 -3.236,3.604l-0,3.431l10.34,0l-0,13.936l-10.34,-0l-0,27.852l10.694,0c7.557,0 13.684,-6.126 13.684,-13.683c-0,-13.107 -0,-32.778 -0,-45.885c-0,-7.557 -6.127,-13.683 -13.684,-13.683c-13.12,-0 -32.817,-0 -45.936,-0c-7.557,-0 -13.684,6.126 -13.684,13.683c0,13.107 0,32.778 0,45.885c0,7.557 6.127,13.683 13.684,13.683l21.459,0Z" style="fill:#fff;"/></svg>