<?xml version="1.0" encoding="UTF-8" standalone="no"?><!DOCTYPE svg PUBLIC "-//W3C//DTD SVG 1.1//EN" "http://www.w3.org/Graphics/SVG/1.1/DTD/svg11.dtd"><svg width="100%" height="100%" viewBox="0 0 84 83" version="1.1" xmlns="http://www.w3.org/2000/svg" xmlns:xlink="http://www.w3.org/1999/xlink" xml:space="preserve" xmlns:serif="http://www.serif.com/" style="fill-rule:evenodd;clip-rule:evenodd;stroke-linejoin:round;stroke-miterlimit:2;"><path id="logo-wha" d="M10.085,65.86c-5.2,-6.848 -8.288,-15.385 -8.288,-24.638c0,-22.513 18.278,-40.791 40.791,-40.791c22.513,0 40.791,18.278 40.791,40.791c-0,22.513 -18.278,40.791 -40.791,40.791c-7.191,-0 -13.949,-1.865 -19.818,-5.137l-22.257,5.137c3.095,-2.447 9.677,-11.026 9.572,-16.153l0,-0Zm6.45,-4.889c-4.169,-5.489 -6.644,-12.332 -6.644,-19.749c0,-18.046 14.651,-32.697 32.697,-32.697c18.046,0 32.697,14.651 32.697,32.697c0,18.046 -14.651,32.697 -32.697,32.697c-5.764,-0 -11.181,-1.495 -15.886,-4.117l-14.308,4.117c2.481,-1.962 4.225,-8.838 4.14,-12.948l0.001,-0Zm4.102,-31.743c0.031,-4.995 4.096,-9.041 9.099,-9.041c5.022,0 9.099,4.078 9.099,9.1c0,4.098 -2.715,7.566 -6.443,8.704c3.134,5.036 8.963,9.424 17.079,11.325c0.501,-4.549 4.362,-8.094 9.044,-8.094c5.022,0 9.1,4.077 9.1,9.099c-0,5.003 -4.046,9.068 -9.041,9.099l-0.059,0c-22.288,0 -37.878,-14.144 -37.878,-30.133l-0,-0.059Z" style="fill:#fff;"/></svg>