<?xml version="1.0" encoding="UTF-8" standalone="no"?><!DOCTYPE svg PUBLIC "-//W3C//DTD SVG 1.1//EN" "http://www.w3.org/Graphics/SVG/1.1/DTD/svg11.dtd"><svg width="100%" height="100%" viewBox="0 0 70 70" version="1.1" xmlns="http://www.w3.org/2000/svg" xmlns:xlink="http://www.w3.org/1999/xlink" xml:space="preserve" xmlns:serif="http://www.serif.com/" style="fill-rule:evenodd;clip-rule:evenodd;stroke-linejoin:round;stroke-miterlimit:2;"><path id="logo-ins" d="M69.451,17.222c0,-4.482 -1.78,-8.78 -4.949,-11.949c-3.169,-3.169 -7.467,-4.95 -11.949,-4.95l-35.146,0c-4.481,0 -8.78,1.781 -11.949,4.95c-3.169,3.169 -4.949,7.467 -4.949,11.949l-0,35.354c-0,4.482 1.78,8.78 4.949,11.949c3.169,3.169 7.468,4.95 11.949,4.95l35.146,-0c4.482,-0 8.78,-1.781 11.949,-4.95c3.169,-3.169 4.949,-7.467 4.949,-11.949l0,-35.354Zm-6.512,0.189c-0,-2.8 -1.112,-5.484 -3.092,-7.464c-1.979,-1.979 -4.664,-3.092 -7.464,-3.092c-9.968,0 -24.838,0 -34.806,0c-2.8,0 -5.485,1.113 -7.464,3.092c-1.98,1.98 -3.092,4.664 -3.092,7.464c0,10.01 0,24.966 0,34.976c0,2.799 1.112,5.484 3.092,7.464c1.979,1.979 4.664,3.091 7.464,3.091c9.968,0 24.838,0 34.806,0c2.8,0 5.485,-1.112 7.464,-3.091c1.98,-1.98 3.092,-4.665 3.092,-7.464c-0,-10.01 -0,-24.966 -0,-34.976Zm-27.959,-0.97c10.187,-0 18.458,8.271 18.458,18.458c0,10.187 -8.271,18.458 -18.458,18.458c-10.187,0 -18.458,-8.271 -18.458,-18.458c-0,-10.187 8.271,-18.458 18.458,-18.458Zm0,6.762c6.455,0 11.696,5.241 11.696,11.696c-0,6.455 -5.241,11.696 -11.696,11.696c-6.455,-0 -11.696,-5.241 -11.696,-11.696c0,-6.455 5.241,-11.696 11.696,-11.696Zm18.458,-12.084c2.937,-0 5.322,2.385 5.322,5.322c-0,2.937 -2.385,5.321 -5.322,5.321c-2.937,0 -5.321,-2.384 -5.321,-5.321c-0,-2.937 2.384,-5.322 5.321,-5.322Z" style="fill:#fff;"/></svg>